<svg id="Layer_1" data-name="Layer 1" xmlns="http://www.w3.org/2000/svg" width="1847.348" height="260.1596" viewBox="0 0 1847.348 260.1596"><path d="M1019.2424,150.3311l-31.79,121.7225A12.9917,12.9917,0,0,0,1000.3,289.449h28.9889l36.3142-139.1179Z" transform="translate(-24.8268 -99.275)" style="fill:#fff"/><path d="M978.68,150.3307H810.5724L774.2468,289.4486H820.62l31.7739-121.7332h17.3836a4.3372,4.3372,0,0,1,4.2979,5.8007L843.8119,289.4478H890.185l31.7583-121.7332h17.4a4.3346,4.3346,0,0,1,4.2826,5.8008L913.3624,289.4475h46.3613l31.79-121.7333A12.9677,12.9677,0,0,0,978.68,150.3307Z" transform="translate(-24.8268 -99.275)" style="fill:#fff"/><path d="M1185.2983,202.5031h-57.9769a4.3228,4.3228,0,0,1-4.2673-5.7958l7.5761-28.9915h77.0525l4.5227-17.3847H1088.7792l-13.6108,52.172a12.9832,12.9832,0,0,0,12.8465,17.3824h57.9627a4.33,4.33,0,0,1,4.2823,5.7953l-12.1133,46.3728h-81.141l-4.5372,17.3954h127.5137l18.1777-69.5635a12.99,12.99,0,0,0-12.8615-17.3824Z" transform="translate(-24.8268 -99.275)" style="fill:#fff"/><path d="M770.6389,150.3311H660.4942L628.7206,272.054a12.9888,12.9888,0,0,0,12.8609,17.395H751.6964l31.79-121.7332a12.981,12.981,0,0,0-12.8471-17.3847Zm-35.038,23.1862-25.7244,98.5363H680.8884a4.3233,4.3233,0,0,1-4.2827-5.7946l25.7252-98.5432h28.9736a4.3316,4.3316,0,0,1,4.2964,5.8015Z" transform="translate(-24.8268 -99.275)" style="fill:#fff"/><path d="M1378.6047,150.3311l-31.7732,121.7225h-17.3989a4.3183,4.3183,0,0,1-4.2826-5.7946l30.2609-115.9279h-46.3572l-31.79,121.7225H1259.88a4.3231,4.3231,0,0,1-4.2823-5.7946l30.2612-115.9279h-46.3716l-31.7743,121.7225a12.9812,12.9812,0,0,0,12.8479,17.3954h168.1071l36.2955-139.1179Z" transform="translate(-24.8268 -99.275)" style="fill:#fff"/><path d="M1790.57,167.7158h77.0678l4.5372-17.3847H1748.7487L1716.9751,272.054a12.9857,12.9857,0,0,0,12.8464,17.395h110.13l4.5516-17.395h-75.3615a4.323,4.323,0,0,1-4.2811-5.7946l12.0977-46.3736h69.5661l4.5216-17.3824h-69.55Z" transform="translate(-24.8268 -99.275)" style="fill:#fff"/><path d="M647.1094,150.3307H495.3523l3.5785,17.3847h50.37L522.035,272.0525a13,13,0,0,0,12.8609,17.3953h28.9888l31.79-121.7332h46.8971Z" transform="translate(-24.8268 -99.275)" style="fill:#fff"/><path d="M482.1007,161.894a12.6033,12.6033,0,0,0-13.3715-11.5633H378.71L342.3836,289.449h46.3881l9.0739-34.7785H445.282L448.86,289.449h46.3731L482.1011,161.894Zm-79.719,75.3838,18.1632-69.562h11.6942a4.2135,4.2135,0,0,1,4.4767,3.9328l.0006.0082,6.7681,65.621Z" transform="translate(-24.8268 -99.275)" style="fill:#fff"/><path d="M1538.1771,150.3311H1448.172L1411.8307,289.449h46.3735l9.0732-34.7785h47.4513l3.5785,34.7785h46.3884l-13.1471-127.555A12.6035,12.6035,0,0,0,1538.1771,150.3311ZM1471.83,237.2778l18.1479-69.562h11.7241a4.2083,4.2083,0,0,1,4.4615,3.9387l0,.0023,6.7834,65.621Z" transform="translate(-24.8268 -99.275)" style="fill:#fff"/><path d="M1679.1963,150.3311l-31.79,121.7225h-11.6939a4.1929,4.1929,0,0,1-4.46-3.9074l-.0017-.0276-12.1584-117.7875h-46.3716l13.1311,127.5622a12.6254,12.6254,0,0,0,13.3863,11.5557h90.0208L1725.57,150.3311Z" transform="translate(-24.8268 -99.275)" style="fill:#fff"/><polygon points="244.127 50.985 240.46 65.014 230.263 25.424 165.233 25.424 149.945 86 128.593 0 63.579 0 0 260.16 65.106 260.16 96.365 132.059 117.152 215.78 182.166 215.78 198.069 152.857 207.712 190.291 272.727 190.291 309.069 50.985 244.127 50.985" style="fill:#fff"/></svg>