<svg
  id="Layer_1"
  data-name="Layer 1"
  xmlns="http://www.w3.org/2000/svg"
  width="182.694"
  height="36.813"
  viewBox="0 0 182.694 36.813"
>
  <path
    d="M48.986,100.057H42.484v5.127h3.938l-4.304,7.326h6.228l4.029-7.326H69.133l3.846,7.326h6.685L60.799,78.628Zm5.678-.092,6.044-11.081,6.044,11.081Z"
    transform="translate(-7.228 -77.529)"
    style="fill: #fff; fill-rule: evenodd"
  />
  <polygon
    points="114.745 1.19 114.745 34.981 120.239 34.981 120.239 16.666 133.334 32.235 146.338 16.575 146.428 34.981 152.29 34.981 152.29 0.733 133.426 22.893 114.745 1.19"
    style="fill: #fff; fill-rule: evenodd"
  />
  <polygon
    points="181.502 0.274 179.946 3.846 178.297 0.274 176.741 0.274 176.741 5.952 177.84 6.044 177.84 2.289 180.038 6.044 181.594 2.289 181.594 6.044 182.694 6.044 182.694 0.274 181.502 0.274"
    style="fill: #fff; fill-rule: evenodd"
  />
  <polygon
    points="172.163 1.19 173.719 1.19 173.719 6.044 174.817 6.044 174.817 1.19 176.467 1.19 176.467 0.274 172.163 0.274 172.163 1.19"
    style="fill: #fff; fill-rule: evenodd"
  />
  <polygon
    points="162.913 34.981 168.499 34.981 168.59 0.366 163.004 0.366 162.913 34.981"
    style="fill: #fff; fill-rule: evenodd"
  />
  <polygon
    points="25.824 22.436 0 1.099 0.091 34.799 4.945 34.799 4.945 13.004 31.318 34.432 31.318 0.824 25.732 0.824 25.824 22.436"
    style="fill: #fff; fill-rule: evenodd"
  />
  <path
    d="M97.889,77.529a18.4065,18.4065,0,1,0,18.406,18.407A18.4084,18.4084,0,0,0,97.889,77.529Zm0,31.319a12.8666,12.8666,0,1,1,12.91-12.912A12.8785,12.8785,0,0,1,97.889,108.848Z"
    transform="translate(-7.228 -77.529)"
    style="fill: #fff; fill-rule: evenodd"
  />
</svg>
